Coordinates
version=1
nRows=12
nColumns=24
inDegrees=yes

Units are S.I. units (second, meters, Newtons, ...)
Angles are in degrees.

endheader
time	pelvis_tilt	pelvis_list	pelvis_rotation	pelvis_tx	pelvis_ty	pelvis_tz	hip_flexion_r	hip_adduction_r	hip_rotation_r	knee_angle_r	ankle_angle_r	subtalar_angle_r	mtp_angle_r	hip_flexion_l	hip_adduction_l	hip_rotation_l	knee_angle_l	ankle_angle_l	subtalar_angle_l	mtp_angle_l	lumbar_extension	lumbar_bending	lumbar_rotation
      1.14416667	     -5.09439464	      1.92841299	     -6.27921167	      0.11584530	      1.04552304	      0.26945239	     22.89293548	     -4.37326867	     -3.27925672	    -74.22426885	      3.46185662	     -0.97294383	      7.16348261	     23.68853204	      1.27067252	     -0.26736951	    -28.36687502	     15.42275077	      4.14212455	      1.48387656	     -7.00340054	     -3.07471014	      2.25231092
      1.14833333	     -5.06867757	      1.82867151	     -6.31902760	      0.12147981	      1.04719258	      0.26956677	     23.38061215	     -4.15007786	     -3.40387367	    -73.84040910	      3.77851463	     -0.70725543	      7.16465207	     23.07689817	      1.17729282	     -0.32212624	    -27.91708240	     15.58395194	      4.25276712	      1.49764555	     -7.02042115	     -2.96991548	      2.19775308
      1.15250000	     -5.04887754	      1.71874220	     -6.35125365	      0.12710928	      1.04882449	      0.26968075	     23.85526374	     -3.91419839	     -3.53768517	    -73.38590146	      4.09648744	     -0.42961408	      7.17180336	     22.47130077	      1.07439137	     -0.37323784	    -27.46609949	     15.74000928	      4.36123770	      1.51116400	     -7.03229495	     -2.85039306	      2.14323612
      1.15666667	     -5.01803932	      1.61559442	     -6.37847524	      0.13274075	      1.05046397	      0.26979250	     24.30299390	     -3.68934988	     -3.67703917	    -72.86974273	      4.41085296	     -0.13234371	      7.18411189	     21.84562925	      0.98155223	     -0.42230647	    -26.99212272	     15.88310947	      4.47339837	      1.52558837	     -7.05510736	     -2.74124990	      2.08098081
      1.16083333	     -4.99059736	      1.51748020	     -6.39980339	      0.13837020	      1.05205649	      0.26990280	     24.73981112	     -3.47048428	     -3.81943407	    -72.29414201	      4.72431880	      0.17403673	      7.20144014	     21.22199180	      0.89618967	     -0.46535759	    -26.51073422	     16.01768893	      4.57380240	      1.54043440	     -7.07512820	     -2.63457335	      2.01596993
      1.16500000	     -4.95407035	      1.41809781	     -6.41501021	      0.14399408	      1.05363334	      0.27001103	     25.14880142	     -3.25205836	     -3.96606141	    -71.65674649	      5.03469800	      0.48059050	      7.22329381	     20.58620484	      0.81310613	     -0.50255437	    -26.02079593	     16.14326870	      4.66831239	      1.55581382	     -7.10806844	     -2.52963944	      1.94747794
      1.16916667	     -4.92102505	      1.30679555	     -6.42056550	      0.14961293	      1.05516122	      0.27010421	     25.54146730	     -3.02317806	     -4.12340215	    -70.95748985	      5.34109640	      0.78098139	      7.24827565	     19.95740281	      0.71992926	     -0.53092942	    -25.53642770	     16.26440393	      4.75939671	      1.57092822	     -7.14031154	     -2.40442258	      1.88041993
      1.17333333	     -4.88177160	      1.21296990	     -6.41956440	      0.15523381	      1.05664850	      0.27019348	     25.91561736	     -2.81860665	     -4.28182226	    -70.21050427	      5.64653254	      1.09632825	      7.28324037	     19.31999119	      0.64825241	     -0.55740677	    -25.03942668	     16.39097958	      4.85375426	      1.59135216	     -7.17284773	     -2.29502452	      1.78842791
      1.17750000	     -4.85579524	      1.11868141	     -6.41546439	      0.16084348	      1.05805970	      0.27028313	     26.28888999	     -2.61025284	     -4.43719007	    -69.40947268	      5.94527985	      1.38700627	      7.32210540	     18.69984250	      0.57609100	     -0.57494737	    -24.54455000	     16.49402584	      4.92634014	      1.61174218	     -7.19692424	     -2.18373021	      1.70569432
      1.18166667	     -4.83415429	      1.01121231	     -6.40490412	      0.16644974	      1.05943307	      0.27037139	     26.64421355	     -2.38625079	     -4.59459997	    -68.54504072	      6.23240489	      1.65582434	      7.35361173	     18.08746471	      0.49061976	     -0.58594373	    -24.05487359	     16.57390665	      4.98502261	      1.62560787	     -7.21896067	     -2.06234106	      1.64318985
      1.18583333	     -4.78885258	      0.92493313	     -6.38649682	      0.17204402	      1.06075500	      0.27043662	     26.96659156	     -2.19791805	     -4.75480874	    -67.64809779	      6.51918510	      1.93535843	      7.39892039	     17.45141642	      0.43461777	     -0.58873488	    -23.55848339	     16.68530546	      5.04802651	      1.64698645	     -7.26993346	     -1.95954736	      1.53854489
      1.19000000	     -4.77613369	      0.81886825	     -6.36091890	      0.17764491	      1.06199060	      0.27049878	     27.29910237	     -1.98339520	     -4.91873269	    -66.68622543	      6.78474841	      2.18352342	      7.44586563	     16.85650133	      0.35437738	     -0.58287206	    -23.07635435	     16.77551566	      5.10311302	      1.66809874	     -7.28268683	     -1.82854015	      1.44678488
